<svg width="144" height="36" viewBox="0 0 144 36" fill="none" xmlns="http://www.w3.org/2000/svg">
<path d="M39.8473 31.2974C40.0385 32.6739 39.5175 33.9887 38.574 34.8127C38.3988 34.9674 38.2091 35.1032 38.0067 35.2199C37.8234 35.3242 37.6322 35.4141 37.4299 35.4851C36.9709 35.6477 36.4928 35.7077 36.0227 35.6778C36.0099 35.6778 35.9971 35.6778 35.9844 35.6746C35.0378 35.6068 34.1262 35.1773 33.4809 34.4908C32.4339 33.3778 32.4642 31.9951 32.4768 31.7063C32.4768 31.5673 32.4833 31.4316 32.4991 31.2974H21.1207C21.1368 31.4316 21.1431 31.5673 21.1431 31.7063C21.1559 31.9951 21.1861 33.3778 20.1391 34.4908C19.4937 35.1773 18.5822 35.6068 17.6356 35.6746C17.6228 35.6778 17.61 35.6778 17.5972 35.6778C17.1272 35.7077 16.6491 35.6477 16.1902 35.4851C15.9877 35.4141 15.7965 35.3242 15.6132 35.2199C15.4108 35.1032 15.2212 34.9674 15.0459 34.8143C15.0443 34.8143 15.0443 34.8127 15.0443 34.8127C14.1025 33.9871 13.5814 32.6739 13.7726 31.2974H9.67383C9.70091 31.1963 9.7296 31.0938 9.75669 30.9927C10.2666 29.1159 10.7766 27.2375 11.2866 25.3605L11.6212 25.3448L15.5367 25.1712C15.7136 25.1633 15.8491 25.0164 15.8411 24.8429C15.8331 24.6675 15.6881 24.5319 15.508 24.5414L11.7949 24.7055L11.4619 24.7212C11.6467 24.0363 11.8332 23.3528 12.018 22.6692L12.3415 22.6961L15.4857 22.9564H15.5128C15.677 22.9564 15.8172 22.8319 15.83 22.6676C15.8443 22.4941 15.7152 22.3409 15.5399 22.3266L12.5105 22.0757L12.1869 22.0489C12.375 21.3559 12.563 20.6629 12.7511 19.9715L13.0507 20.0868L16.0339 21.228C16.0706 21.2423 16.1104 21.2502 16.1487 21.2502C16.2761 21.2502 16.3972 21.1728 16.4452 21.0481C16.5088 20.8855 16.4275 20.7024 16.2633 20.6393L13.218 19.4727L12.9184 19.359C14.571 13.2755 16.2251 7.19189 17.8778 1.10986C19.0714 4.74676 20.2633 8.38365 21.4554 12.019C22.2969 11.5959 24.2586 10.7293 26.7988 10.7688H26.8211C29.3613 10.7293 31.3231 11.5959 32.1645 12.019C33.3565 8.38365 34.5486 4.74676 35.7422 1.10986C37.3947 7.19189 39.049 13.2755 40.7015 19.359L40.402 19.4727L37.3565 20.6393C37.1924 20.7024 37.1095 20.8855 37.1733 21.0481C37.2226 21.1728 37.3437 21.2502 37.4713 21.2502C37.5095 21.2502 37.5477 21.2423 37.5859 21.228L40.5692 20.0868L40.8689 19.9715C41.0568 20.6629 41.2449 21.3559 41.4329 22.0489L41.1094 22.0757L38.08 22.3266C37.9047 22.3409 37.774 22.4941 37.7883 22.6676C37.8027 22.8319 37.9429 22.9564 38.1055 22.9564H38.1326L41.2785 22.6961L41.6019 22.6692C41.7868 23.3528 41.9732 24.0363 42.158 24.7212L41.825 24.7055L38.1103 24.5414C37.9303 24.535 37.7852 24.6675 37.7773 24.8429C37.7692 25.0164 37.9063 25.1633 38.0817 25.1712L41.9987 25.3448L42.3334 25.3605C42.8434 27.2375 43.3533 29.1159 43.8633 30.9927C43.8903 31.0938 43.919 31.1963 43.946 31.2974H39.8473Z" fill="#F4E041"/>
<path d="M44.3604 31.613L44.2776 31.3098L44.1914 30.9926L42.6647 25.3746L42.3333 25.3604L41.9987 25.3447L43.5301 30.9815H39.4807L39.5301 31.3399C39.6815 32.4242 39.3564 33.4756 38.7046 34.2332C38.5803 34.3785 38.4433 34.5127 38.2966 34.6326C38.2521 34.6705 38.2058 34.7068 38.1596 34.7399C38.064 34.8126 37.9652 34.8773 37.8616 34.9357C37.6911 35.0352 37.5111 35.1203 37.3213 35.1867C37.0058 35.2987 36.6775 35.3587 36.3477 35.3682C36.2392 35.3714 36.1309 35.3682 36.0226 35.3619C35.9174 35.3556 35.8121 35.3429 35.7071 35.3256C34.9612 35.2071 34.2489 34.8441 33.7135 34.2743C32.8242 33.3287 32.7748 32.1734 32.7955 31.706C32.7955 31.5688 32.8018 31.4471 32.8146 31.3335L32.8561 30.9815H20.7621L20.8035 31.3335C20.8163 31.4471 20.8243 31.5688 20.8243 31.7187C20.8434 32.1734 20.794 33.3287 19.9047 34.2743C19.3693 34.8441 18.6569 35.2071 17.9127 35.3256C17.8076 35.3429 17.7024 35.3556 17.5972 35.3619C17.4889 35.3682 17.3806 35.3714 17.2721 35.3682C16.9407 35.3587 16.6124 35.2987 16.2968 35.1867C16.1088 35.1203 15.9287 35.0368 15.7598 34.9373H15.7582C15.6546 34.8788 15.5542 34.8126 15.4586 34.7399C15.4124 34.7068 15.3661 34.6705 15.3215 34.6326C15.1749 34.5127 15.0379 34.3785 14.9136 34.2332C14.2618 33.4756 13.9367 32.4242 14.0881 31.3399L14.1375 30.9815H10.0897L11.6211 25.3447L11.2865 25.3604L10.9534 25.3746L9.42674 30.9926L9.34069 31.3098L9.25781 31.613H13.4203C13.3152 33.4677 14.3924 35.1851 16.0817 35.7818C17.5526 36.3027 19.2768 35.8702 20.3718 34.7052C21.4251 33.5844 21.484 32.2238 21.4618 31.706C21.4618 31.6745 21.4602 31.6428 21.4602 31.613H32.1581V31.6919C32.1342 32.2238 32.1931 33.5844 33.2466 34.7052C34.0337 35.5419 35.1429 35.9996 36.2504 35.9996C36.6856 35.9996 37.1206 35.9286 37.5365 35.7818C39.2257 35.1851 40.303 33.4677 40.1979 31.613H44.3604ZM12.018 22.669L11.6945 22.6421L11.1271 24.7353L11.4618 24.7211L11.7949 24.7054L12.3415 22.6958L12.018 22.669ZM35.7709 0L35.4377 1.01183C34.4433 4.04573 33.4473 7.07964 32.453 10.112L31.9733 11.5753C30.7605 11.0101 28.9628 10.415 26.8211 10.4529H26.8036C24.6554 10.4182 22.8577 11.0101 21.6451 11.5753L21.1654 10.112C20.1708 7.07964 19.1765 4.04573 18.1805 1.01183L17.8475 0L12.6188 19.2437L12.9184 19.3589L13.2179 19.4726L17.9064 2.21782C18.7908 4.91549 19.6753 7.6116 20.5581 10.3077L21.2674 12.4671L21.5988 12.2998C22.7398 11.7252 24.5741 11.0433 26.7987 11.0843H26.8258C29.0569 11.0464 30.8784 11.7252 32.0194 12.2998L32.3524 12.4671L33.0601 10.3077C33.9429 7.6116 34.8273 4.91549 35.7134 2.21782L40.4018 19.4726L40.7014 19.3589L40.9995 19.2437L35.7709 0ZM12.4514 19.8562L11.8634 22.0218L12.1869 22.0486L12.5104 22.0755L13.0506 20.0867L12.751 19.9714L12.4514 19.8562ZM41.1667 19.8576L40.8688 19.9714L40.5692 20.0867L41.1094 22.0755L41.4329 22.0486L41.7549 22.0234L41.1667 19.8576ZM41.9237 22.6421L41.6019 22.669L41.2783 22.6958L41.825 24.7054L42.158 24.7211L42.491 24.7353L41.9237 22.6421Z" fill="black" fill-opacity="0.87"/>
<path d="M29.3354 20.6991C28.9609 20.6991 28.6582 20.399 28.6582 20.0281V15.9619C28.6582 15.5909 28.9609 15.291 29.3354 15.291C29.7099 15.291 30.0126 15.5909 30.0126 15.9619V20.0281C30.0126 20.3976 29.7099 20.6991 29.3354 20.6991Z" fill="black" fill-opacity="0.87"/>
<path d="M24.6813 19.989C24.3099 20.0284 23.9752 19.7616 23.9354 19.3923L23.6055 16.3237C23.5656 15.9559 23.835 15.6244 24.2079 15.5849C24.5793 15.5455 24.9139 15.8122 24.9537 16.1816L25.2835 19.2502C25.3235 19.6196 25.0541 19.9495 24.6813 19.989Z" fill="black" fill-opacity="0.87"/>
<path d="M16.4424 21.048C16.3946 21.1727 16.2735 21.25 16.146 21.25C16.1077 21.25 16.0679 21.2422 16.0312 21.228L13.048 20.0866L12.7484 19.9714L12.4488 19.8562L8.11415 18.1971C7.94842 18.134 7.86714 17.9509 7.93088 17.7883C7.99464 17.6258 8.17949 17.5453 8.34364 17.6084L12.6161 19.2437L12.9157 19.3589L13.2153 19.4725L16.2607 20.6392C16.4249 20.7023 16.5061 20.8854 16.4424 21.048Z" fill="black" fill-opacity="0.87"/>
<path d="M15.8269 22.6674C15.8141 22.8317 15.6739 22.9564 15.5098 22.9564H15.4827L12.3385 22.6959L12.015 22.669L11.6915 22.6422L7.02378 22.2555C6.84848 22.2412 6.71779 22.0882 6.73374 21.9145C6.74807 21.7409 6.89947 21.6114 7.07795 21.6273L11.8604 22.0218L12.1839 22.0487L12.5074 22.0755L15.5369 22.3266C15.7121 22.3407 15.8412 22.4939 15.8269 22.6674Z" fill="black" fill-opacity="0.87"/>
<path d="M15.8385 24.843C15.8464 25.0167 15.711 25.1634 15.5341 25.1713L11.6186 25.3449L11.2839 25.3608L10.9509 25.3749L7.05446 25.5487H7.04011C6.87119 25.5487 6.72937 25.4159 6.72299 25.2472C6.71502 25.0718 6.85048 24.9251 7.02577 24.9172L11.1246 24.7356L11.4592 24.7215L11.7923 24.7057L15.5054 24.5415C15.6855 24.532 15.8305 24.6678 15.8385 24.843Z" fill="black" fill-opacity="0.87"/>
<path d="M45.5003 18.1971L41.1641 19.8578L40.866 19.9714L40.5665 20.0866L37.5832 21.228C37.545 21.2422 37.5067 21.25 37.4684 21.25C37.341 21.25 37.2198 21.1727 37.1704 21.048C37.1068 20.8854 37.1895 20.7023 37.3537 20.6392L40.3991 19.4725L40.6988 19.3589L40.9967 19.2437L45.2707 17.6084C45.4333 17.5453 45.6198 17.6258 45.6836 17.7883C45.7457 17.9509 45.6645 18.134 45.5003 18.1971Z" fill="black" fill-opacity="0.87"/>
<path d="M46.8787 21.9149C46.8929 22.0884 46.7623 22.2416 46.5869 22.2557L41.9193 22.6426L41.5973 22.6694L41.2738 22.6963L38.128 22.9566H38.101C37.9384 22.9566 37.7982 22.8321 37.7838 22.6678C37.7694 22.4942 37.9002 22.3411 38.0754 22.3268L41.105 22.0759L41.4284 22.0491L41.7503 22.0238L46.5343 21.6275C46.7097 21.6102 46.8643 21.7411 46.8787 21.9149Z" fill="black" fill-opacity="0.87"/>
<path d="M46.89 25.2468C46.8819 25.4157 46.7417 25.5483 46.5712 25.5483H46.5568L42.6604 25.3747L42.329 25.3604L41.9944 25.3446L38.0773 25.1711C37.902 25.163 37.7649 25.0163 37.7728 24.8427C37.7809 24.6674 37.9258 24.5348 38.106 24.5412L41.8207 24.7053L42.1537 24.7211L42.4867 24.7354L46.5856 24.9168C46.7624 24.9247 46.8979 25.0716 46.89 25.2468Z" fill="black" fill-opacity="0.87"/>
<path d="M35.8901 32.6484C36.0118 32.9957 36.1173 33.4189 36.1509 33.9034C36.1909 34.4733 36.1189 34.969 36.0197 35.3619L35.8901 32.6484Z" fill="white"/>
<path d="M36.0212 35.6779C35.9957 35.6779 35.9702 35.6746 35.9447 35.6684C35.7743 35.6272 35.669 35.4553 35.7121 35.2864C35.8236 34.8364 35.8651 34.3787 35.8332 33.9256C35.806 33.5325 35.7233 33.138 35.5894 32.7527C35.5319 32.5886 35.6197 32.4086 35.7869 32.3519C35.9543 32.295 36.1343 32.3818 36.1916 32.5477C36.3446 32.9848 36.4371 33.4346 36.469 33.883C36.5057 34.4023 36.4578 34.9248 36.3304 35.4394C36.2936 35.5814 36.163 35.6779 36.0212 35.6779Z" fill="black" fill-opacity="0.87"/>
<path d="M37.9683 32.5239C38.1635 32.8349 38.3333 33.2137 38.3861 33.6478C38.4502 34.1577 38.3349 34.6013 38.1764 34.9549L37.9683 32.5239Z" fill="white"/>
<path d="M38.1758 35.2687C38.1327 35.2687 38.0896 35.2592 38.0466 35.2419C37.8856 35.1708 37.8123 34.9846 37.884 34.8251C38.053 34.4463 38.1136 34.0627 38.0673 33.6839C38.0258 33.3524 37.9017 33.0178 37.6961 32.6878C37.6036 32.5395 37.6498 32.3452 37.7997 32.2537C37.9494 32.1621 38.1455 32.2079 38.2379 32.3563C38.4929 32.7635 38.6474 33.1851 38.7 33.6081C38.7605 34.1006 38.6825 34.5963 38.4673 35.0808C38.4147 35.1993 38.2985 35.2687 38.1758 35.2687Z" fill="black" fill-opacity="0.87"/>
<path d="M17.7273 32.6484C17.6057 32.9957 17.5 33.4189 17.4663 33.9034C17.4263 34.4733 17.4984 34.969 17.5975 35.3619L17.7273 32.6484Z" fill="white"/>
<path d="M17.5945 35.6778C17.4512 35.6778 17.3221 35.5814 17.2855 35.4379C17.1579 34.9249 17.1101 34.4008 17.1467 33.8814C17.177 33.4316 17.2711 32.9832 17.424 32.546C17.4815 32.3818 17.6632 32.2934 17.8288 32.3503C17.9946 32.407 18.0838 32.587 18.0265 32.7513C17.8926 33.1363 17.8097 33.5294 17.7826 33.924C17.7508 34.377 17.7922 34.8349 17.9037 35.2847C17.9452 35.4536 17.8416 35.6256 17.6711 35.6668C17.6455 35.6746 17.6201 35.6778 17.5945 35.6778Z" fill="black" fill-opacity="0.87"/>
<path d="M15.6491 32.5239C15.4538 32.8349 15.2842 33.2137 15.2314 33.6478C15.1674 34.1577 15.2826 34.6013 15.441 34.9549L15.6491 32.5239Z" fill="white"/>
<path d="M15.4398 35.2687C15.3171 35.2687 15.2008 35.1977 15.1482 35.0808C14.933 34.5977 14.8534 34.1021 14.9155 33.6081C14.9681 33.1851 15.1227 32.7651 15.3777 32.3563C15.4701 32.2079 15.6661 32.1621 15.8159 32.2537C15.9657 32.3452 16.0119 32.5395 15.9195 32.6878C15.7139 33.0161 15.5896 33.3524 15.5482 33.6839C15.502 34.0627 15.5625 34.4463 15.7314 34.8251C15.8032 34.9846 15.7299 35.1708 15.5689 35.2419C15.5259 35.2608 15.4828 35.2687 15.4398 35.2687Z" fill="black" fill-opacity="0.87"/>
<path d="M11.5688 31.5672H0.339013C0.152556 31.5672 0 31.4462 0 31.2985C0 31.1506 0.152556 31.0298 0.339013 31.0298H11.5688C11.7553 31.0298 11.9078 31.1506 11.9078 31.2985C11.9078 31.4462 11.7553 31.5672 11.5688 31.5672Z" fill="black" fill-opacity="0.87"/>
<path d="M52.4551 31.6239H41.8974C41.7221 31.6239 41.5786 31.482 41.5786 31.3083C41.5786 31.1347 41.7221 30.9927 41.8974 30.9927H52.4551C52.6305 30.9927 52.7738 31.1347 52.7738 31.3083C52.7738 31.482 52.6319 31.6239 52.4551 31.6239Z" fill="black" fill-opacity="0.87"/>
<path d="M30.0521 25.8154C29.8225 26.4057 29.2918 27.045 28.6178 27.1414C27.9947 27.2282 27.4209 26.8983 27.0082 26.3853C26.9684 26.4941 26.919 26.6062 26.8553 26.7183C26.7516 26.9015 26.1955 27.8074 25.268 27.8074H25.2424C24.3596 27.7917 23.5932 26.9945 23.4593 25.9512C23.4386 25.7774 23.5613 25.6196 23.7365 25.5991C23.9087 25.577 24.0713 25.7001 24.092 25.8723C24.194 26.6773 24.7629 27.1681 25.2536 27.1761H25.2664C25.8513 27.1761 26.2545 26.4894 26.2991 26.4105C26.519 26.019 26.5141 25.618 26.4743 25.3545C26.4601 25.3056 26.4473 25.2566 26.4345 25.2077C25.8211 25.2788 25.292 25.0656 25.1947 24.6772C25.0848 24.2352 25.5772 23.7333 26.2959 23.5566C27.0162 23.3798 27.6887 23.5943 27.7986 24.0364C27.8911 24.4011 27.5739 24.8051 27.0576 25.0356C27.0735 25.0939 27.0879 25.1635 27.1007 25.2392C27.3588 26.0884 28.0186 26.5857 28.5285 26.5162C28.9238 26.4594 29.295 26.0063 29.456 25.5896C29.5931 25.236 29.574 24.903 29.5342 24.6867C29.5039 24.5147 29.6185 24.3505 29.7906 24.319C29.9659 24.2889 30.1301 24.4026 30.162 24.5731C30.2162 24.8699 30.2416 25.3244 30.0521 25.8154Z" fill="black" fill-opacity="0.87"/>
<path d="M60.6555 25.737C60.1107 25.737 59.8384 25.5869 59.8384 25.2867V12.9253H55.9159C55.7797 12.9253 55.6776 12.8775 55.6095 12.782C55.5414 12.6865 55.5073 12.5296 55.5073 12.3113V11.9838C55.5073 11.7655 55.5414 11.6086 55.6095 11.5131C55.6776 11.4176 55.7797 11.3699 55.9159 11.3699H65.4973C65.6471 11.3699 65.7493 11.4176 65.8037 11.5131C65.8718 11.6086 65.9059 11.7655 65.9059 11.9838V12.3113C65.9059 12.5296 65.8718 12.6865 65.8037 12.782C65.7493 12.8775 65.6471 12.9253 65.4973 12.9253H61.6361V25.2867C61.6361 25.5869 61.3638 25.737 60.819 25.737H60.6555ZM68.9259 25.6961C68.708 25.6961 68.5514 25.6483 68.456 25.5528C68.3607 25.4573 68.313 25.3004 68.313 25.0821V11.9838C68.313 11.7655 68.3607 11.6086 68.456 11.5131C68.5514 11.4176 68.708 11.3699 68.9259 11.3699H76.0558C76.2056 11.3699 76.3077 11.4176 76.3623 11.5131C76.4303 11.6086 76.4644 11.7655 76.4644 11.9838V12.3113C76.4644 12.5296 76.4303 12.6865 76.3623 12.782C76.3077 12.8775 76.2056 12.9253 76.0558 12.9253H70.1108V17.5915H75.4429C75.5927 17.5915 75.6949 17.6393 75.7493 17.7348C75.8174 17.8303 75.8515 17.9872 75.8515 18.2055V18.533C75.8515 18.7513 75.8174 18.9082 75.7493 19.0037C75.6949 19.0992 75.5927 19.1469 75.4429 19.1469H70.1108V24.1406H76.0763C76.226 24.1406 76.3282 24.1884 76.3827 24.2839C76.4507 24.3794 76.4848 24.5363 76.4848 24.7546V25.0821C76.4848 25.3004 76.4507 25.4573 76.3827 25.5528C76.3282 25.6483 76.226 25.6961 76.0763 25.6961H68.9259ZM82.4482 25.8189C81.631 25.8189 80.8751 25.7233 80.1805 25.5323C79.4859 25.3413 78.9615 25.1094 78.6075 24.8365C78.3486 24.6455 78.2193 24.4749 78.2193 24.3248C78.2193 24.1611 78.3078 23.936 78.4849 23.6495C78.6755 23.3629 78.8252 23.2197 78.9343 23.2197C78.9887 23.2197 79.1317 23.2879 79.3633 23.4243C79.7854 23.6563 80.2349 23.8541 80.7117 24.0178C81.202 24.1816 81.7808 24.2634 82.4482 24.2634C83.238 24.2634 83.8782 24.0451 84.3685 23.6085C84.8723 23.1583 85.1244 22.5716 85.1244 21.8485C85.1244 21.3436 84.9882 20.9275 84.7159 20.6C84.4433 20.2589 84.1097 19.9929 83.7148 19.8019C83.3334 19.5972 82.7751 19.3516 82.0396 19.0651C81.2496 18.7513 80.623 18.4647 80.1601 18.2055C79.697 17.9463 79.3021 17.5642 78.9752 17.0594C78.6483 16.5409 78.4849 15.8656 78.4849 15.0333C78.4849 14.2965 78.6687 13.6416 79.0365 13.0685C79.4177 12.4955 79.9489 12.0521 80.63 11.7383C81.3246 11.4108 82.1213 11.2471 83.0202 11.2471C83.4831 11.2471 84.0008 11.3153 84.5728 11.4517C85.1449 11.5745 85.5874 11.7451 85.9008 11.9634C86.1731 12.1271 86.3093 12.3045 86.3093 12.4955C86.3093 12.6456 86.2207 12.8639 86.0438 13.1504C85.8803 13.4369 85.7508 13.5802 85.6556 13.5802C85.5874 13.5802 85.4852 13.5461 85.3492 13.4779C85.2266 13.4097 85.1449 13.3619 85.104 13.3346C84.4229 12.9799 83.7148 12.8025 82.9794 12.8025C82.1893 12.8025 81.5493 13.0071 81.059 13.4165C80.5822 13.8258 80.344 14.392 80.344 15.1151C80.344 15.579 80.4596 15.9542 80.6913 16.2408C80.9364 16.5273 81.2087 16.7456 81.5084 16.8957C81.8216 17.0321 82.3595 17.2504 83.1224 17.5506C83.9395 17.8644 84.6068 18.1714 85.1244 18.4716C85.6419 18.7581 86.0777 19.1811 86.4319 19.7405C86.7996 20.2862 86.9835 20.9889 86.9835 21.8485C86.9835 23.0764 86.5749 24.0451 85.7577 24.7546C84.9406 25.4641 83.8374 25.8189 82.4482 25.8189ZM93.2349 25.737C92.6901 25.737 92.4177 25.5869 92.4177 25.2867V12.9253H88.4953C88.359 12.9253 88.2569 12.8775 88.1889 12.782C88.1206 12.6865 88.0867 12.5296 88.0867 12.3113V11.9838C88.0867 11.7655 88.1206 11.6086 88.1889 11.5131C88.2569 11.4176 88.359 11.3699 88.4953 11.3699H98.0767C98.2264 11.3699 98.3286 11.4176 98.3831 11.5131C98.4511 11.6086 98.4853 11.7655 98.4853 11.9838V12.3113C98.4853 12.5296 98.4511 12.6865 98.3831 12.782C98.3286 12.8775 98.2264 12.9253 98.0767 12.9253H94.2155V25.2867C94.2155 25.5869 93.943 25.737 93.3983 25.737H93.2349ZM104.447 25.737C103.902 25.737 103.63 25.5869 103.63 25.2867V12.9253H99.7074C99.5713 12.9253 99.4691 12.8775 99.4009 12.782C99.3329 12.6865 99.2988 12.5296 99.2988 12.3113V11.9838C99.2988 11.7655 99.3329 11.6086 99.4009 11.5131C99.4691 11.4176 99.5713 11.3699 99.7074 11.3699H109.289C109.439 11.3699 109.541 11.4176 109.595 11.5131C109.663 11.6086 109.697 11.7655 109.697 11.9838V12.3113C109.697 12.5296 109.663 12.6865 109.595 12.782C109.541 12.8775 109.439 12.9253 109.289 12.9253H105.428V25.2867C105.428 25.5869 105.155 25.737 104.61 25.737H104.447ZM110.408 25.737C109.823 25.737 109.53 25.621 109.53 25.3891C109.53 25.3209 109.55 25.2253 109.591 25.1025L114.433 11.6564C114.514 11.4381 114.787 11.3289 115.25 11.3289H115.842C116.333 11.3289 116.605 11.4381 116.659 11.6564L121.501 25.123C121.542 25.2185 121.563 25.3072 121.563 25.3891C121.563 25.621 121.27 25.737 120.684 25.737H120.521C120.044 25.737 119.772 25.6278 119.703 25.4095L118.498 22.0531H112.492L111.327 25.4095C111.259 25.6278 110.987 25.737 110.51 25.737H110.408ZM117.947 20.4977L115.801 14.3988C115.733 14.1805 115.652 13.7849 115.556 13.2118H115.515C115.407 13.7576 115.304 14.1532 115.209 14.3988L113.064 20.4977H117.947ZM126.798 25.8189C125.981 25.8189 125.225 25.7233 124.531 25.5323C123.836 25.3413 123.312 25.1094 122.958 24.8365C122.699 24.6455 122.569 24.4749 122.569 24.3248C122.569 24.1611 122.658 23.936 122.835 23.6495C123.026 23.3629 123.175 23.2197 123.285 23.2197C123.339 23.2197 123.482 23.2879 123.714 23.4243C124.136 23.6563 124.585 23.8541 125.062 24.0178C125.552 24.1816 126.131 24.2634 126.798 24.2634C127.588 24.2634 128.228 24.0451 128.719 23.6085C129.223 23.1583 129.475 22.5716 129.475 21.8485C129.475 21.3436 129.338 20.9275 129.066 20.6C128.794 20.2589 128.46 19.9929 128.065 19.8019C127.684 19.5972 127.125 19.3516 126.39 19.0651C125.6 18.7513 124.973 18.4647 124.51 18.2055C124.047 17.9463 123.652 17.5642 123.325 17.0594C122.999 16.5409 122.835 15.8656 122.835 15.0333C122.835 14.2965 123.019 13.6416 123.387 13.0685C123.768 12.4955 124.299 12.0521 124.98 11.7383C125.675 11.4108 126.471 11.2471 127.37 11.2471C127.833 11.2471 128.351 11.3153 128.923 11.4517C129.495 11.5745 129.938 11.7451 130.251 11.9634C130.523 12.1271 130.66 12.3045 130.66 12.4955C130.66 12.6456 130.571 12.8639 130.394 13.1504C130.231 13.4369 130.101 13.5802 130.006 13.5802C129.938 13.5802 129.835 13.5461 129.699 13.4779C129.577 13.4097 129.495 13.3619 129.454 13.3346C128.773 12.9799 128.065 12.8025 127.33 12.8025C126.54 12.8025 125.899 13.0071 125.409 13.4165C124.932 13.8258 124.694 14.392 124.694 15.1151C124.694 15.579 124.81 15.9542 125.041 16.2408C125.287 16.5273 125.559 16.7456 125.859 16.8957C126.172 17.0321 126.71 17.2504 127.473 17.5506C128.29 17.8644 128.957 18.1714 129.475 18.4716C129.992 18.7581 130.428 19.1811 130.782 19.7405C131.15 20.2862 131.334 20.9889 131.334 21.8485C131.334 23.0764 130.925 24.0451 130.108 24.7546C129.291 25.4641 128.188 25.8189 126.798 25.8189ZM134.827 25.737C134.282 25.737 134.01 25.5869 134.01 25.2867V11.7792C134.01 11.479 134.282 11.3289 134.827 11.3289H134.991C135.535 11.3289 135.808 11.479 135.808 11.7792V18.0418H135.889L140.915 11.6155C141.065 11.4244 141.433 11.3289 142.018 11.3289H142.223C142.454 11.3289 142.631 11.3562 142.754 11.4108C142.876 11.4517 142.938 11.5131 142.938 11.595C142.938 11.7178 142.869 11.8542 142.733 12.0043L137.626 18.3897L143.816 25.123C143.939 25.2595 144 25.3686 144 25.4505C144 25.5596 143.932 25.6347 143.796 25.6756C143.659 25.7165 143.428 25.737 143.101 25.737H142.856C142.556 25.737 142.318 25.7233 142.141 25.6961C141.977 25.6688 141.841 25.5937 141.732 25.4709L135.889 18.8809H135.808V25.2867C135.808 25.5869 135.535 25.737 134.991 25.737H134.827Z" fill="black" fill-opacity="0.87"/>
</svg>
